Coordinates
version=1
nRows=8
nColumns=40
inDegrees=yes

Units are S.I. units (second, meters, Newtons, ...)
Angles are in degrees.

endheader
time	pelvis_tilt	pelvis_list	pelvis_rotation	pelvis_tx	pelvis_ty	pelvis_tz	hip_flexion_r	hip_adduction_r	hip_rotation_r	knee_angle_r	knee_angle_r_beta	ankle_angle_r	subtalar_angle_r	mtp_angle_r	hip_flexion_l	hip_adduction_l	hip_rotation_l	knee_angle_l	knee_angle_l_beta	ankle_angle_l	subtalar_angle_l	mtp_angle_l	lumbar_extension	lumbar_bending	lumbar_rotation	arm_flex_r	arm_add_r	arm_rot_r	elbow_flex_r	pro_sup_r	wrist_flex_r	wrist_dev_r	arm_flex_l	arm_add_l	arm_rot_l	elbow_flex_l	pro_sup_l	wrist_flex_l	wrist_dev_l
      1.58000000	     -2.92755556	     -0.49360905	      5.69611937	      0.12995253	      0.88810766	      1.41580214	     29.04666304	     -4.16796904	    -16.63172899	    -24.97379506	     -0.43587495	      4.95189099	     -7.27080329	     14.76621078	      7.14159603	      0.35498458	     11.20921745	    -26.86385911	     -0.46886279	     13.79893218	      0.94988871	     -1.17456746	     -3.12574425	     -0.90384130	    -10.83853665	     -3.37084923	     -6.41517591	    -24.83747663	     23.82659610	     89.95437384	      0.00000000	      0.00000000	      4.52820671	     14.95824079	     20.34618143	     51.54159850	     89.95437384	      0.00000000	      0.00000000
      1.59000000	     -2.46091147	     -0.78705433	      5.82706735	      0.13735868	      0.88831369	      1.41647135	     28.65717277	     -3.82671805	    -17.14415805	    -23.74888771	     -0.41449628	      5.25420357	     -5.97710329	     13.32784496	      6.07237088	      1.11105788	     12.06682927	    -26.79671384	     -0.46769089	     13.72445625	     -0.63568781	     -2.21449712	     -3.54652981	     -0.56192495	    -10.88354189	     -3.58667558	     -6.33718953	    -24.94130742	     23.76593192	     89.95437384	      0.00000000	      0.00000000	      4.57219394	     15.02358531	     20.26399820	     52.02350683	     89.95437384	      0.00000000	      0.00000000
      1.60000000	     -2.92770111	     -0.54599800	      5.81162895	      0.14282349	      0.88719754	      1.41642080	     29.31204519	     -4.10522139	    -17.61346229	    -22.35943895	     -0.39024583	      5.16940130	     -5.49517735	     13.13879420	      6.17120839	      0.82490818	     12.17657738	    -26.81498744	     -0.46800982	     13.83857361	     -0.55649984	     -2.27615097	     -3.17307822	     -0.80397941	    -10.80550193	     -3.74212809	     -6.30820959	    -24.96386923	     23.71605265	     89.95437384	      0.00000000	      0.00000000	      4.72116350	     15.00525555	     20.23815759	     52.41877556	     89.95437384	      0.00000000	      0.00000000
      1.61000000	     -2.93803849	     -0.81266061	      6.06378635	      0.14953762	      0.88676004	      1.41692368	     29.52281763	     -3.85387891	    -17.62934477	    -21.46319623	     -0.37460344	      5.20828682	     -4.76258106	     12.74326975	      5.77544773	      1.25339125	     12.06961162	    -26.89967194	     -0.46948784	     14.04288826	     -0.66672967	     -2.44822675	     -3.12460526	     -0.52140791	    -10.99619954	     -3.84531033	     -6.24382205	    -25.09285996	     23.46874112	     89.95437384	      0.00000000	      0.00000000	      4.76253138	     15.01533239	     20.23105923	     52.80374679	     89.95437384	      0.00000000	      0.00000000
      1.62000000	     -3.20134007	     -0.64729401	      6.07007463	      0.15570803	      0.88587566	      1.41724196	     30.00775158	     -4.05897502	    -18.13292273	    -20.54912077	     -0.35864982	      5.33790953	     -4.50118982	     12.58174367	      5.58905357	      1.14757963	     12.28049243	    -26.89538259	     -0.46941298	     14.13825453	     -0.70821846	     -2.49855435	     -2.90166430	     -0.69122927	    -10.88598284	     -4.00322894	     -6.20929248	    -25.06810495	     23.32174247	     89.95437384	      0.00000000	      0.00000000	      4.90613207	     14.97660257	     20.17779333	     53.09163404	     89.95437384	      0.00000000	      0.00000000
      1.63000000	     -3.16142395	     -0.83312770	      6.31180850	      0.16239080	      0.88557623	      1.41763422	     29.96545375	     -3.95937739	    -18.65737761	    -19.57886127	     -0.34171559	      5.20964205	     -3.18229483	     11.89638778	      5.09917709	      1.55589943	     12.43338184	    -26.90946767	     -0.46965881	     14.07636278	     -1.28986774	     -2.82511074	     -2.94606000	     -0.45785774	    -11.08282705	     -4.01811678	     -6.17115395	    -25.22841968	     23.02530602	     89.95437384	      0.00000000	      0.00000000	      4.96662907	     14.92573755	     20.22199899	     53.40313986	     89.95437384	      0.00000000	      0.00000000
      1.64000000	     -3.41844305	     -0.62036996	      6.37585918	      0.16891751	      0.88473055	      1.41780024	     30.31265660	     -4.25247734	    -19.16040621	    -18.82744825	     -0.32860096	      5.31939380	     -2.45432907	     11.36658396	      4.87557281	      1.36134473	     12.44203000	    -26.88043294	     -0.46915206	     14.02508710	     -1.53341971	     -3.01823253	     -2.70104442	     -0.65070184	    -11.07406465	     -4.16888649	     -6.15956371	    -25.18198412	     22.80782499	     89.95437384	      0.00000000	      0.00000000	      4.97222484	     14.85554393	     20.23235454	     53.68411557	     89.95437384	      0.00000000	      0.00000000
      1.65000000	     -3.59941662	     -0.50719063	      6.48006150	      0.17554511	      0.88396743	      1.41825030	     30.67949070	     -4.42591677	    -19.37265956	    -18.51884904	     -0.32321489	      5.43885286	     -2.38155842	     11.16371278	      4.61259017	      1.35744766	     12.55669714	    -26.92177469	     -0.46987361	     14.04268141	     -1.52780255	     -3.04157821	     -2.53780903	     -0.74106066	    -11.07827101	     -4.33053322	     -6.14885536	    -25.13793642	     22.70811534	     89.95437384	      0.00000000	      0.00000000	      5.05693651	     14.81906862	     20.17670830	     53.87045860	     89.95437384	      0.00000000	      0.00000000
